<?xml version="1.0" standalone="no"?>
<!DOCTYPE svg PUBLIC "-//W3C//DTD SVG 20010904//EN"
 "http://www.w3.org/TR/2001/REC-SVG-20010904/DTD/svg10.dtd">
<svg version="1.0" xmlns="http://www.w3.org/2000/svg"
 width="360.000000pt" height="360.000000pt" viewBox="0 0 360.000000 360.000000"
 preserveAspectRatio="xMidYMid meet">
<metadata>
Created by potrace 1.11, written by Peter Selinger 2001-2013
</metadata>
<g transform="translate(0.000000,360.000000) scale(0.100000,-0.100000)"
fill="#000000" stroke="none">
<path d="M978 3236 c-254 -105 -474 -333 -629 -651 -68 -141 -129 -316 -129
-372 0 -60 27 -78 176 -120 71 -20 132 -39 136 -42 3 -3 -2 -44 -12 -91 -31
-138 -42 -300 -30 -429 10 -105 35 -249 45 -260 4 -3 136 29 270 66 13 3 4
-11 -28 -44 l-47 -49 132 -18 c166 -22 188 -27 188 -36 0 -5 -34 -67 -75 -139
-41 -71 -75 -132 -75 -134 0 -2 55 4 122 14 67 10 138 19 158 21 42 3 42 10
-1 -167 -16 -66 -29 -125 -29 -132 0 -7 59 15 142 53 77 35 143 62 146 59 3
-2 9 -73 14 -157 5 -83 9 -153 11 -154 1 -1 54 42 117 97 63 54 119 97 125 95
5 -1 32 -66 59 -144 27 -78 52 -142 55 -142 3 0 38 51 78 113 39 61 78 121 86
131 13 18 21 10 107 -110 51 -71 94 -130 95 -132 1 -1 22 64 45 145 24 82 46
151 50 155 3 4 60 -35 127 -87 67 -52 124 -95 127 -95 3 0 7 72 8 159 l3 159
148 -58 c81 -32 147 -55 147 -52 0 4 -18 71 -41 150 -22 79 -38 146 -35 149 3
3 71 0 151 -7 80 -7 148 -10 151 -7 3 3 -31 63 -75 133 -45 71 -78 131 -73
135 4 3 73 19 155 34 81 15 147 29 147 30 0 2 -52 50 -115 106 -63 56 -115
105 -115 108 0 4 61 38 135 76 74 39 135 73 135 76 0 3 -63 35 -140 70 -77 35
-140 67 -140 70 0 3 37 39 83 80 l83 75 117 29 118 29 -7 30 c-12 58 -84 231
-130 312 -69 122 -161 239 -272 345 -199 191 -445 320 -725 381 -84 18 -134
22 -287 22 -194 0 -305 -16 -442 -63 l-56 -19 -189 108 c-103 60 -199 111
-213 114 -15 4 -47 -3 -82 -18z m149 -263 c46 -27 83 -50 83 -53 0 -3 -33 -26
-73 -52 -195 -128 -382 -338 -486 -545 -17 -35 -34 -63 -38 -63 -16 0 -129 34
-137 41 -18 16 84 235 169 364 92 138 209 254 335 328 25 15 49 27 54 27 6 0
47 -21 93 -47z m1101 -1310 c17 -81 -5 -158 -65 -224 -106 -117 -286 -119
-394 -3 -32 35 -78 128 -68 138 6 6 482 135 501 135 12 1 19 -12 26 -46z"/>
</g>
</svg>
