<?xml version="1.0" standalone="no"?>
<!DOCTYPE svg PUBLIC "-//W3C//DTD SVG 20010904//EN"
 "http://www.w3.org/TR/2001/REC-SVG-20010904/DTD/svg10.dtd">
<svg version="1.0" xmlns="http://www.w3.org/2000/svg"
 width="300.000000pt" height="300.000000pt" viewBox="0 0 300.000000 300.000000"
 preserveAspectRatio="xMidYMid meet">
<metadata>
Created by potrace 1.10, written by Peter Selinger 2001-2011
</metadata>
<g transform="translate(0.000000,300.000000) scale(0.100000,-0.100000)"
fill="#000000" stroke="none">
<path d="M1294 2981 c-72 -33 -91 -70 -129 -251 -18 -89 -35 -163 -36 -165 -2
-2 -29 -14 -60 -28 l-56 -25 -134 88 c-145 95 -193 114 -251 101 -57 -13 -95
-41 -199 -148 -101 -103 -117 -126 -130 -183 -13 -56 7 -105 101 -248 l88
-135 -25 -56 c-14 -31 -26 -58 -28 -60 -2 -1 -76 -18 -165 -36 -253 -52 -270
-73 -270 -335 0 -262 17 -283 270 -335 89 -18 163 -35 165 -36 2 -2 14 -29 28
-60 l25 -56 -89 -134 c-93 -142 -113 -192 -100 -249 13 -57 29 -80 130 -183
104 -107 142 -135 199 -148 59 -13 108 6 251 100 l134 89 56 -25 c31 -14 58
-26 60 -28 1 -2 18 -76 36 -165 52 -253 73 -270 335 -270 262 0 283 17 335
270 18 89 35 163 36 165 2 2 30 15 61 28 l58 26 132 -89 c143 -95 191 -114
250 -101 57 13 95 41 199 148 173 176 175 214 27 437 l-86 128 25 56 c14 32
26 59 28 61 2 1 76 18 165 36 253 52 270 73 270 335 0 262 -17 283 -270 335
-89 18 -163 35 -165 36 -2 2 -14 29 -28 61 l-25 56 86 128 c148 223 146 261
-27 437 -104 107 -142 135 -199 148 -58 13 -103 -5 -248 -101 l-134 -89 -57
25 c-32 14 -60 27 -62 29 -1 2 -18 76 -36 165 -52 253 -73 270 -335 270 -140
0 -171 -3 -206 -19z m361 -313 c33 -169 51 -217 96 -250 34 -25 160 -80 212
-92 49 -12 106 13 242 104 l132 88 91 -90 90 -91 -88 -132 c-91 -136 -116
-193 -104 -242 12 -51 67 -177 91 -211 13 -17 36 -38 51 -46 22 -11 308 -76
335 -76 4 0 7 -58 7 -129 0 -125 -1 -129 -22 -134 -13 -3 -84 -18 -158 -32
-153 -31 -179 -42 -213 -87 -24 -34 -79 -160 -91 -211 -12 -49 13 -106 104
-242 l88 -132 -90 -91 -91 -90 -132 88 c-136 91 -193 116 -242 104 -43 -10
-175 -66 -205 -86 -46 -31 -65 -78 -97 -235 -17 -83 -31 -154 -31 -157 0 -3
-58 -6 -129 -6 l-128 0 -28 143 c-33 168 -51 216 -96 249 -34 25 -160 80 -212
92 -49 12 -106 -13 -242 -104 l-132 -88 -91 90 -90 91 88 132 c91 136 116 193
104 242 -12 51 -67 177 -91 211 -34 46 -60 56 -236 93 l-157 33 0 128 c0 70 3
128 8 128 31 0 309 63 332 75 16 8 40 30 53 47 24 34 79 160 91 211 12 49 -13
106 -104 242 l-88 132 90 91 91 90 132 -88 c136 -91 193 -116 242 -104 51 12
177 67 211 91 45 34 56 60 87 213 14 74 29 145 32 158 5 21 9 22 133 22 l127
0 28 -142z"/>
<path d="M1401 2149 c-253 -38 -471 -237 -537 -489 -10 -39 -17 -103 -17 -160
0 -186 59 -326 193 -460 134 -134 274 -193 460 -193 186 0 326 59 460 193 134
134 193 274 193 460 0 186 -59 326 -193 460 -124 124 -247 181 -421 193 -41 3
-103 1 -138 -4z m243 -94 c195 -51 360 -216 411 -411 19 -75 19 -213 0 -288
-51 -195 -216 -360 -411 -411 -75 -19 -213 -19 -288 0 -195 51 -360 216 -411
411 -19 75 -19 213 0 288 50 193 215 359 406 410 72 20 220 20 293 1z"/>
<path d="M1367 1851 c-98 -39 -181 -124 -219 -223 -16 -42 -19 -71 -16 -143 4
-109 32 -175 105 -248 26 -26 72 -60 103 -75 49 -24 66 -27 160 -27 94 0 111
3 160 27 71 35 143 107 178 178 24 49 27 66 27 160 0 94 -3 111 -27 160 -15
31 -49 77 -75 103 -75 75 -139 101 -253 104 -75 2 -105 -1 -143 -16z m229 -88
c102 -35 184 -151 184 -263 0 -75 -27 -139 -84 -196 -114 -113 -278 -113 -392
0 -113 114 -113 278 1 392 80 80 183 104 291 67z"/>
</g>
</svg>
