<?xml version="1.0" standalone="no"?>
<!DOCTYPE svg PUBLIC "-//W3C//DTD SVG 20010904//EN"
 "http://www.w3.org/TR/2001/REC-SVG-20010904/DTD/svg10.dtd">
<svg version="1.0" xmlns="http://www.w3.org/2000/svg"
 width="1280.000000pt" height="640.000000pt" viewBox="0 0 1280.000000 640.000000"
 preserveAspectRatio="xMidYMid meet">
<g transform="translate(0.000000,640.000000) scale(0.100000,-0.100000)"
fill="#000000" stroke="none">
<path d="M6508 5510 c-32 -5 -79 -15 -105 -23 -44 -13 -49 -17 -60 -58 -17
-58 -40 -192 -53 -304 -5 -50 -14 -318 -20 -598 l-10 -507 186 -322 186 -322
-12 -156 c-6 -85 -15 -162 -19 -170 -5 -8 -20 -16 -35 -18 -17 -2 -26 -8 -23
-16 10 -26 -11 -34 -102 -37 l-95 -4 -8 33 -9 32 -68 0 -68 0 5 -26 5 -27 -68
5 c-37 3 -81 1 -97 -4 -35 -12 -55 1 -60 40 -3 26 -5 27 -71 28 -59 1 -67 -1
-62 -16 10 -30 -20 -43 -81 -35 -36 4 -66 2 -85 -6 -26 -10 -32 -9 -44 7 -8
11 -15 29 -15 42 0 21 -4 22 -68 22 -65 0 -69 -1 -68 -22 1 -22 -3 -23 -79
-26 -43 -2 -84 -7 -91 -13 -15 -12 -44 15 -44 41 0 27 -16 34 -82 34 -51 1
-58 -1 -55 -16 8 -28 -17 -38 -89 -37 -38 1 -80 0 -94 -2 -21 -3 -26 2 -36 31
-12 35 -12 35 -79 38 -62 3 -66 2 -60 -17 9 -28 -4 -32 -111 -35 l-95 -2 -6
28 c-7 37 -15 41 -85 42 -51 1 -58 -1 -55 -16 8 -28 -16 -38 -89 -37 -38 0
-80 -1 -94 -3 -21 -2 -27 3 -36 32 -12 35 -12 35 -79 38 -60 3 -67 1 -61 -14
13 -33 -11 -43 -84 -37 -50 4 -74 2 -85 -7 -20 -16 -35 -4 -49 42 -6 18 -17
33 -23 32 -7 -1 -37 -2 -66 -2 -49 -2 -54 -4 -53 -24 1 -22 -3 -23 -75 -23
-52 0 -82 -5 -94 -15 -15 -13 -19 -12 -31 5 -8 10 -14 26 -14 35 0 29 -23 40
-86 40 -58 0 -62 -1 -57 -21 8 -30 -13 -39 -80 -32 -39 4 -66 2 -82 -7 -30
-16 -52 -1 -57 38 -3 26 -6 27 -71 30 -64 3 -68 2 -62 -17 9 -28 -4 -32 -111
-35 -83 -1 -97 1 -105 16 -5 10 -7 18 -4 18 3 0 2 8 -4 18 -7 13 -24 17 -74
18 -64 1 -65 0 -64 -25 2 -26 2 -26 -68 -23 -41 2 -79 -2 -92 -9 -28 -15 -48
-1 -57 41 -5 30 -6 30 -74 30 -67 0 -68 0 -67 -27 l0 -28 -69 3 c-42 3 -78 -1
-92 -9 -29 -15 -51 0 -56 39 -3 26 -6 27 -71 30 -64 3 -68 2 -62 -17 9 -28
-11 -36 -88 -32 -42 1 -74 -2 -83 -9 -21 -18 -42 -5 -52 32 -8 33 -9 33 -76
36 -63 3 -67 2 -62 -16 11 -32 -17 -45 -78 -38 -40 5 -62 3 -84 -8 -34 -18
-48 -9 -61 41 -4 15 -13 28 -19 27 -7 -1 -36 -2 -66 -2 -50 -2 -54 -4 -49 -23
8 -31 -14 -40 -80 -33 -45 5 -63 2 -83 -11 -24 -16 -27 -16 -45 1 -10 9 -19
25 -19 35 0 27 -13 30 -85 23 -53 -6 -63 -9 -54 -20 22 -27 -8 -44 -77 -44
-42 0 -67 -5 -78 -15 -22 -22 -31 -19 -64 22 l-29 36 -49 -12 c-81 -21 -78
-19 -64 -36 20 -24 -4 -42 -63 -50 -59 -8 -97 -28 -97 -51 0 -12 -6 -15 -22
-9 -52 16 -132 27 -135 19 -2 -5 -16 -29 -33 -54 -28 -43 -29 -45 -10 -52 28
-10 25 -29 -15 -81 -38 -50 -44 -81 -19 -108 15 -16 14 -21 -17 -58 -18 -23
-36 -41 -40 -41 -15 0 -19 -34 -5 -49 8 -9 21 -33 30 -54 15 -36 17 -38 32
-22 16 15 18 15 34 -2 9 -10 25 -39 34 -66 20 -53 43 -71 81 -61 20 5 26 1 35
-21 6 -15 8 -36 5 -45 -7 -22 6 -31 65 -47 61 -16 68 -16 66 4 -2 25 35 28 89
7 26 -9 57 -14 73 -11 35 7 52 -7 52 -44 0 -36 15 -45 82 -53 46 -5 56 -3 52
7 -3 8 2 20 11 27 12 10 24 10 63 -1 26 -7 67 -14 92 -14 42 0 44 -2 51 -33 4
-18 8 -34 10 -36 2 -2 32 -6 67 -9 58 -5 62 -4 57 14 -9 28 17 34 87 21 36 -7
68 -8 82 -2 28 10 46 -4 46 -36 0 -30 14 -38 83 -41 43 -3 58 0 56 9 -4 34 1
36 101 34 l101 -1 10 -37 c9 -36 12 -38 48 -38 21 0 52 -3 69 -6 27 -6 29 -4
25 19 -6 32 10 37 81 25 44 -8 64 -7 82 3 30 15 43 5 53 -42 7 -33 7 -33 72
-36 62 -3 66 -2 65 20 -1 21 2 22 77 19 50 -2 83 1 93 9 18 14 44 -4 44 -31 0
-44 10 -50 77 -50 52 0 64 3 60 14 -10 26 17 34 113 32 92 -2 95 -3 98 -27 5
-36 15 -42 85 -45 62 -3 64 -3 60 20 -6 31 10 36 80 23 44 -8 63 -7 82 3 30
16 52 2 57 -38 3 -26 6 -27 70 -32 66 -5 67 -5 61 17 -6 26 -12 25 116 27 55
0 95 -3 96 -9 2 -5 6 -22 9 -38 6 -26 9 -27 72 -27 53 0 65 3 61 14 -10 26 16
33 112 31 l94 -1 11 -34 c11 -34 12 -34 77 -36 63 -2 66 -1 62 21 -6 29 13 36
78 26 32 -5 64 -5 81 1 35 12 55 -2 60 -40 3 -26 6 -27 72 -30 57 -2 68 -1 63
12 -11 27 18 37 87 30 47 -5 70 -3 81 6 20 16 45 -3 45 -35 0 -33 18 -42 86
-43 61 -2 61 -2 56 25 l-5 26 74 -5 c41 -3 83 -1 96 5 28 13 51 -4 55 -41 3
-26 6 -27 71 -32 61 -4 68 -3 64 12 -8 30 16 39 87 32 48 -5 70 -3 81 6 13 11
19 11 31 -1 8 -9 16 -26 19 -38 6 -34 9 -35 79 -38 61 -2 63 -1 59 21 -6 31
10 36 80 25 45 -7 64 -6 86 5 31 16 51 6 51 -25 0 -43 10 -49 76 -49 63 0 64
1 64 26 l0 27 70 -7 c45 -4 78 -2 91 5 16 8 25 7 39 -6 10 -9 17 -22 14 -28
-8 -24 13 -35 78 -39 66 -4 66 -4 65 22 l-2 25 78 -3 c46 -3 83 0 91 7 17 14
43 -13 48 -49 3 -24 7 -25 72 -28 57 -2 68 -1 63 12 -8 20 17 38 45 34 22 -3
24 -9 35 -138 21 -228 58 -371 111 -428 25 -26 39 -31 196 -56 94 -15 173 -29
178 -32 4 -3 10 -19 14 -37 3 -18 25 -66 48 -107 40 -73 43 -75 79 -74 20 0
97 1 171 2 l133 2 36 80 37 81 162 -8 c243 -12 1117 -8 1493 6 182 7 502 13
712 14 336 1 384 3 387 17 3 8 8 32 12 53 3 21 14 41 23 46 26 13 65 -3 78
-31 7 -14 19 -30 26 -36 10 -8 223 -9 768 -2 948 11 1206 21 1322 51 46 11 48
13 104 112 106 190 152 335 189 602 26 194 28 235 9 319 -20 91 -83 194 -179
294 -74 78 -145 130 -301 219 l-118 68 -2 70 c-3 92 -33 161 -80 181 -98 41
-387 104 -653 144 -160 24 -193 25 -259 5 -47 -14 -54 -14 -109 5 -96 33 -283
78 -538 130 -152 30 -244 54 -250 63 -6 8 -78 197 -160 420 l-149 405 -96 45
c-240 113 -471 190 -711 236 -178 34 -258 42 -455 46 l-190 3 -20 27 c-182
246 -352 402 -493 455 -173 65 -490 42 -623 -45 -50 -33 -158 -179 -209 -283
-54 -110 -100 -252 -136 -414 -17 -80 -32 -128 -40 -128 -21 0 -81 179 -108
326 -28 151 -38 298 -45 659 l-6 360 -55 12 c-76 17 -223 24 -292 13z m1314
-840 c24 -7 54 -29 86 -65 74 -81 292 -371 292 -389 0 -9 -10 -22 -22 -29 -34
-21 -738 -161 -750 -149 -12 12 26 154 104 382 78 228 76 224 140 243 64 19
101 20 150 7z m-987 -671 c17 -21 25 -41 23 -58 -3 -23 -9 -27 -59 -35 -70
-11 -89 -5 -89 29 0 39 18 65 53 80 43 19 42 19 72 -16z m-5787 -931 c20 -20
14 -28 -23 -28 -19 0 -35 4 -35 8 0 12 22 32 35 32 6 0 16 -5 23 -12z m350 0
c19 -19 14 -28 -18 -28 -18 0 -30 5 -30 13 0 28 27 36 48 15z m357 -31 c-17
-9 -55 -1 -55 13 0 5 8 13 17 19 13 7 23 5 36 -7 16 -14 16 -17 2 -25z m355
18 c19 -22 -1 -39 -35 -31 -26 7 -27 8 -10 26 22 24 29 25 45 5z m-1420 -10
c15 -18 13 -20 -17 -29 -26 -8 -39 9 -23 29 16 19 24 19 40 0z m1787 -18 c-5
-16 -37 -21 -50 -8 -18 18 11 43 35 30 10 -6 17 -16 15 -22z m341 1 c19 -19
14 -28 -18 -28 -16 0 -30 4 -30 8 0 9 21 32 30 32 3 0 11 -5 18 -12z m362 -13
c22 -26 -7 -46 -39 -26 -12 8 -12 12 -2 25 17 20 25 20 41 1z m359 -14 c12
-22 5 -31 -24 -31 -31 0 -37 11 -18 32 20 23 30 23 42 -1z m357 -18 c17 -17
16 -18 -15 -21 -40 -4 -48 2 -31 23 16 19 25 19 46 -2z m-3538 -7 c19 -10 21
-15 10 -23 -23 -19 -80 -45 -85 -39 -6 6 36 76 45 76 4 -1 17 -6 30 -14z
m3902 -22 c0 -17 -46 -19 -56 -2 -11 17 26 40 43 27 7 -6 13 -18 13 -25z m354
-10 c4 -10 -3 -14 -24 -14 -19 0 -30 5 -30 14 0 28 43 28 54 0z m346 1 c15
-18 5 -35 -20 -35 -10 0 -22 5 -25 10 -7 11 12 40 25 40 4 0 13 -7 20 -15z
m358 -28 c2 -11 -3 -17 -16 -17 -26 0 -34 11 -20 27 14 17 32 12 36 -10z m362
-18 c0 -5 -11 -9 -25 -9 -26 0 -35 25 -12 33 13 5 37 -10 37 -24z m353 -4 c8
-18 -8 -28 -33 -20 -11 4 -17 12 -13 21 7 18 39 18 46 -1z m337 -25 c0 -5 -4
-10 -10 -10 -5 0 -10 5 -10 10 0 6 5 10 10 10 6 0 10 -4 10 -10z m-6164 -132
c-4 -29 -10 -55 -12 -58 -6 -6 -43 41 -44 54 0 13 41 56 53 56 6 0 7 -21 3
-52z m6365 -91 c-13 -13 -15 21 -3 50 6 15 8 13 10 -11 2 -16 -1 -33 -7 -39z
m-6258 -133 c28 -20 54 -38 56 -40 2 -2 -17 -4 -42 -4 -41 0 -48 3 -62 30 -15
29 -19 50 -10 50 3 0 29 -16 58 -36z m11122 -53 c44 -16 148 -58 232 -94 273
-118 407 -148 563 -126 112 15 128 14 159 -8 88 -65 109 -173 72 -354 -23
-108 -98 -370 -110 -382 -5 -5 -57 -2 -117 7 -211 30 -344 37 -834 43 l-495 5
-35 34 c-61 58 -95 66 -299 74 -196 8 -209 6 -232 -37 -7 -13 -17 -23 -22 -23
-17 0 -94 49 -99 62 -2 7 2 121 10 253 l14 240 55 125 c55 125 69 150 82 150
4 0 26 -16 48 -35 23 -19 49 -35 58 -35 9 0 75 18 147 40 123 38 132 39 155
25 48 -32 138 -131 157 -173 23 -52 26 -51 134 10 53 30 105 71 167 135 50 50
95 92 100 92 6 0 46 -12 90 -28z m-10800 -81 c0 -22 -29 -18 -33 3 -3 14 1 18
15 15 10 -2 18 -10 18 -18z m346 -65 c0 -14 -31 -19 -43 -7 -6 6 -7 15 -4 21
8 12 48 0 47 -14z m338 -34 c16 -10 6 -31 -14 -31 -17 0 -28 17 -20 30 8 12
16 12 34 1z m359 -48 c2 -7 -4 -16 -12 -19 -19 -7 -49 14 -40 28 8 13 46 6 52
-9z m352 -37 c0 -19 -25 -27 -39 -13 -18 18 -13 27 14 27 15 0 25 -6 25 -14z
m360 -25 c0 -5 -7 -14 -15 -21 -12 -10 -18 -10 -30 0 -23 19 -18 30 15 30 17
0 30 -4 30 -9z m350 -30 c0 -5 -7 -14 -15 -21 -12 -10 -18 -10 -30 0 -23 19
-18 30 15 30 17 0 30 -4 30 -9z m345 -21 c4 -6 1 -18 -6 -26 -10 -13 -14 -12
-30 2 -10 9 -16 21 -13 25 7 12 41 11 49 -1z m357 -35 c0 -5 -7 -14 -16 -20
-12 -7 -19 -6 -26 5 -5 8 -10 19 -10 23 0 12 50 4 52 -8z m357 -21 c3 -3 -3
-12 -12 -21 -16 -16 -18 -16 -33 -1 -21 21 -9 41 19 32 12 -3 24 -8 26 -10z
m353 -29 c0 -5 -6 -14 -15 -19 -17 -11 -51 10 -41 26 7 12 54 6 56 -7z m358
-24 c0 -5 -7 -14 -15 -21 -12 -10 -18 -10 -30 0 -23 19 -18 30 15 30 17 0 30
-4 30 -9z m352 -26 c0 -5 -6 -14 -15 -19 -17 -11 -51 10 -41 26 7 12 54 6 56
-7z m358 -24 c0 -5 -7 -14 -15 -21 -12 -10 -18 -10 -30 0 -23 19 -18 30 15 30
17 0 30 -4 30 -9z m353 -18 c4 -3 0 -15 -10 -25 -15 -17 -18 -17 -34 -2 -10 9
-16 21 -13 25 6 11 48 12 57 2z m355 -35 c-7 -20 -48 -23 -48 -4 0 11 9 16 26
16 16 0 24 -5 22 -12z m356 -17 c8 -13 -21 -34 -39 -27 -25 9 -18 36 9 36 14
0 27 -4 30 -9z"/>
</g>
</svg>
