<?xml version="1.0" standalone="no"?>
<!DOCTYPE svg PUBLIC "-//W3C//DTD SVG 20010904//EN"
 "http://www.w3.org/TR/2001/REC-SVG-20010904/DTD/svg10.dtd">
<svg version="1.0" xmlns="http://www.w3.org/2000/svg"
 width="452.000000pt" height="452.000000pt" viewBox="0 0 452.000000 452.000000"
 preserveAspectRatio="xMidYMid meet">
<metadata>
Created by potrace 1.16, written by Peter Selinger 2001-2019
</metadata>
<g transform="translate(0.000000,452.000000) scale(0.100000,-0.100000)"
fill="#000000" stroke="none">
<path d="M3255 4326 c-60 -13 -236 -65 -245 -73 -2 -2 134 -142 302 -311 l306
-307 -53 -135 -52 -135 -139 -57 -139 -57 -307 307 c-169 168 -309 304 -312
302 -2 -3 -21 -61 -42 -130 -37 -122 -38 -129 -38 -290 -1 -143 2 -176 22
-243 64 -224 227 -429 427 -542 l85 -47 0 -1017 c0 -1108 -2 -1075 57 -1183
37 -69 130 -153 210 -191 65 -31 74 -32 189 -32 118 0 121 1 195 37 122 60
201 152 239 277 19 61 20 99 20 1140 l1 1076 51 40 c114 90 232 274 278 435
28 97 38 302 20 403 -65 367 -346 655 -713 733 -82 17 -278 17 -362 0z m400
-210 c112 -36 198 -89 285 -176 135 -136 199 -281 208 -476 4 -91 1 -125 -17
-194 -42 -167 -137 -311 -270 -410 l-71 -53 -2 -1126 -3 -1126 -22 -40 c-90
-167 -315 -196 -436 -55 -71 83 -67 14 -67 1205 l0 1071 -79 32 c-269 110
-444 347 -459 620 -2 50 -1 92 4 92 5 0 111 -102 235 -226 l226 -226 236 92
235 93 92 235 92 234 -226 227 c-124 124 -226 230 -226 235 0 18 184 -1 265
-28z"/>
<path d="M1923 3245 c-29 -8 -74 -26 -101 -39 -27 -13 -194 -152 -371 -307
l-323 -282 -475 -119 c-261 -65 -492 -127 -513 -138 -50 -25 -114 -99 -128
-148 -8 -26 -12 -140 -12 -349 l0 -309 26 -52 c48 -97 127 -143 256 -150 75
-4 88 -7 88 -22 0 -9 16 -49 35 -88 76 -150 236 -251 402 -252 198 -1 374 122
439 308 l19 52 817 0 818 0 0 95 0 95 -819 0 -818 0 -13 46 c-26 93 -129 217
-217 262 -77 40 -150 55 -248 50 -82 -3 -101 -8 -167 -41 -45 -22 -95 -57
-126 -88 -51 -51 -122 -173 -122 -210 0 -16 -8 -19 -56 -19 -57 0 -90 12 -111
39 -9 12 -12 91 -13 294 0 276 0 278 23 301 18 18 117 46 515 146 l493 123
332 289 c182 159 349 299 372 311 37 21 56 22 283 25 l242 3 0 95 0 94 -237
-1 c-172 0 -253 -4 -290 -14z m-976 -1571 c172 -106 174 -350 4 -451 -66 -39
-126 -50 -197 -34 -194 44 -269 285 -135 434 20 22 59 51 86 64 71 34 174 29
242 -13z"/>
</g>
</svg>
