<?xml version="1.0" standalone="no"?>
<!DOCTYPE svg PUBLIC "-//W3C//DTD SVG 20010904//EN"
 "http://www.w3.org/TR/2001/REC-SVG-20010904/DTD/svg10.dtd">
<svg version="1.0" xmlns="http://www.w3.org/2000/svg"
 width="452.000000pt" height="452.000000pt" viewBox="0 0 452.000000 452.000000"
 preserveAspectRatio="xMidYMid meet">
<metadata>
Created by potrace 1.16, written by Peter Selinger 2001-2019
</metadata>
<g transform="translate(0.000000,452.000000) scale(0.100000,-0.100000)"
fill="#000000" stroke="none">
<path d="M2530 3816 c-685 -190 -1275 -354 -1311 -365 -190 -60 -278 -265
-194 -449 22 -49 80 -112 393 -425 l367 -367 -195 -195 -195 -195 -50 50 c-28
28 -55 50 -60 50 -20 0 -853 -845 -873 -885 -41 -82 -55 -153 -50 -252 5 -82
10 -103 41 -167 47 -95 119 -166 216 -214 74 -37 76 -37 196 -37 114 1 123 2
190 33 65 31 99 61 493 455 232 232 422 426 422 432 0 5 -22 32 -50 60 l-50
50 195 195 195 195 367 -367 c400 -399 417 -413 537 -425 120 -12 265 65 315
170 11 23 180 622 376 1332 348 1258 356 1292 352 1365 -6 118 -64 208 -169
265 -43 24 -67 29 -133 32 -78 3 -105 -4 -1325 -341z m1401 115 c31 -31 39
-46 39 -76 0 -31 -679 -2519 -708 -2595 -6 -14 -22 -36 -37 -50 -22 -20 -37
-25 -81 -25 l-54 0 -370 370 -370 370 160 160 c183 185 203 217 204 330 0 171
-128 299 -299 298 -113 0 -145 -20 -330 -203 l-160 -160 -370 370 -370 370 0
55 c0 48 4 59 31 85 28 29 115 54 1310 384 711 197 1298 355 1323 355 38 1 48
-4 82 -38z m-1453 -1427 c31 -20 54 -77 46 -112 -4 -18 -144 -165 -423 -445
l-416 -417 -77 77 -78 78 407 407 c224 224 421 415 438 423 32 16 66 12 103
-11z m-1008 -1039 l185 -185 -335 -336 c-184 -184 -354 -347 -378 -361 -94
-56 -223 -40 -308 39 -60 56 -88 125 -82 208 3 36 13 81 23 100 15 30 691 720
705 720 3 0 88 -83 190 -185z"/>
</g>
</svg>
