<?xml version="1.0" standalone="no"?>
<!DOCTYPE svg PUBLIC "-//W3C//DTD SVG 20010904//EN"
 "http://www.w3.org/TR/2001/REC-SVG-20010904/DTD/svg10.dtd">
<svg version="1.0" xmlns="http://www.w3.org/2000/svg"
 width="256.000000pt" height="256.000000pt" viewBox="0 0 256.000000 256.000000"
 preserveAspectRatio="xMidYMid meet">
<metadata>
Created by potrace 1.10, written by Peter Selinger 2001-2011
</metadata>
<g transform="translate(0.000000,256.000000) scale(0.100000,-0.100000)"
fill="#000000" stroke="none">
<path d="M865 2336 c-16 -16 -23 -31 -19 -43 13 -37 35 -43 146 -43 l108 0 0
-75 0 -75 130 0 130 0 0 75 0 75 108 0 c93 0 111 3 125 18 23 26 21 58 -5 76
-19 14 -71 16 -361 16 l-338 0 -24 -24z"/>
<path d="M732 1983 c-18 -15 -62 -112 -62 -135 0 -5 252 -8 560 -8 308 0 560
2 560 4 0 2 -10 30 -21 63 -38 101 6 93 -539 93 -441 0 -479 -1 -498 -17z"/>
<path d="M247 1722 c-12 -13 -17 -37 -17 -75 l0 -57 1000 0 1000 0 0 53 c0 31
-6 61 -16 75 l-15 22 -968 0 c-925 0 -969 -1 -984 -18z"/>
<path d="M234 1481 c-2 -2 -4 -152 -4 -333 l0 -328 573 0 c543 0 575 -1 590
-18 14 -15 17 -40 17 -130 l0 -112 80 0 79 0 -6 48 c-7 60 10 150 41 218 28
60 102 145 160 181 125 80 302 86 439 17 l27 -15 -2 236 -3 235 -993 3 c-547
1 -996 0 -998 -2z m897 -161 c17 -10 19 -23 19 -162 0 -127 -3 -154 -17 -170
-15 -17 -40 -18 -365 -18 -335 0 -349 1 -368 20 -18 18 -20 33 -20 158 0 108
3 142 16 160 l15 22 350 0 c222 0 357 -4 370 -10z m263 -6 c21 -20 20 -43 -1
-66 -33 -37 -83 -17 -83 34 0 43 53 64 84 32z m0 -260 c21 -21 20 -40 -4 -64
-24 -24 -38 -25 -62 -3 -21 18 -24 53 -6 71 17 17 54 15 72 -4z"/>
<path d="M490 1153 l0 -78 277 2 278 2 3 76 3 75 -281 0 -280 0 0 -77z"/>
<path d="M1882 951 c-75 -26 -140 -85 -181 -164 -30 -58 -34 -74 -34 -147 0
-73 4 -89 34 -148 125 -245 474 -242 596 6 24 49 28 69 28 142 0 73 -4 93 -28
142 -75 152 -254 225 -415 169z m195 -152 c57 -27 97 -93 97 -159 0 -95 -83
-180 -175 -180 -68 1 -145 52 -168 113 -35 91 5 187 94 228 53 24 99 24 152
-2z"/>
<path d="M1958 705 c-51 -28 -50 -103 2 -130 56 -29 110 6 110 71 0 55 -61 87
-112 59z"/>
<path d="M230 655 c0 -102 -40 -96 561 -93 l514 3 0 75 0 75 -537 3 -538 2 0
-65z"/>
<path d="M640 385 l0 -75 -59 0 c-66 0 -91 -15 -91 -55 0 -46 30 -55 197 -55
142 0 203 9 203 31 0 4 3 14 6 22 3 9 -4 25 -15 36 -17 17 -34 21 -81 21 l-60
0 0 75 0 75 -50 0 -50 0 0 -75z"/>
</g>
</svg>
