<?xml version="1.0" standalone="no"?>
<!DOCTYPE svg PUBLIC "-//W3C//DTD SVG 20010904//EN"
 "http://www.w3.org/TR/2001/REC-SVG-20010904/DTD/svg10.dtd">
<svg version="1.0" xmlns="http://www.w3.org/2000/svg"
 width="300.000000pt" height="300.000000pt" viewBox="0 0 300.000000 300.000000"
 preserveAspectRatio="xMidYMid meet">
<metadata>
Created by potrace 1.10, written by Peter Selinger 2001-2011
</metadata>
<g transform="translate(0.000000,300.000000) scale(0.100000,-0.100000)"
fill="#000000" stroke="none">
<path d="M522 2477 l-372 -372 0 -66 0 -66 147 -146 c80 -81 154 -147 162
-147 9 0 57 41 106 90 49 50 94 90 100 90 5 0 120 -110 255 -245 l246 -246 43
10 42 9 -6 -39 c-8 -44 -2 -47 49 -25 33 14 34 13 66 -20 31 -33 32 -37 22
-77 -13 -51 -2 -62 44 -40 32 16 32 15 67 -19 34 -34 35 -37 24 -76 -6 -23 -8
-44 -4 -48 3 -4 23 0 43 8 37 15 38 15 72 -19 33 -33 34 -37 23 -73 -6 -20
-11 -40 -11 -44 0 -10 37 -7 64 6 23 10 29 8 60 -24 33 -34 34 -36 23 -76 -6
-23 -8 -44 -4 -48 3 -4 24 0 45 9 l38 15 33 -36 c31 -35 32 -39 22 -73 -6 -20
-11 -39 -11 -43 0 -10 37 -7 62 5 21 9 29 6 60 -24 35 -33 36 -35 25 -75 -6
-23 -8 -45 -4 -48 4 -4 23 0 43 10 l36 17 35 -36 c34 -35 35 -38 24 -75 -6
-20 -11 -40 -11 -44 0 -11 39 -6 74 11 30 14 39 14 66 3 28 -12 31 -17 26 -42
-7 -36 12 -45 50 -25 26 13 32 13 71 -6 35 -17 43 -26 43 -49 0 -30 10 -34 42
-17 18 10 39 3 140 -47 95 -47 122 -56 136 -48 9 6 18 18 20 27 2 8 -26 73
-62 145 -62 123 -64 131 -54 166 14 44 1 64 -29 47 -17 -9 -22 -4 -42 36 -21
44 -21 46 -5 90 20 53 11 69 -31 53 -15 -6 -29 -9 -30 -8 -41 64 -47 83 -34
120 7 21 9 41 6 45 -4 3 -25 1 -47 -6 -39 -11 -41 -11 -75 23 -35 35 -35 36
-21 70 19 44 7 56 -43 43 -37 -10 -41 -9 -71 22 -32 31 -32 33 -20 72 7 21 10
42 7 46 -4 3 -25 1 -47 -6 -39 -12 -41 -11 -76 23 l-35 34 16 38 c19 46 9 55
-46 40 -37 -10 -41 -9 -71 21 -31 31 -31 33 -18 73 7 22 10 43 7 47 -4 3 -25
1 -47 -6 -39 -11 -41 -11 -75 23 l-35 36 15 37 c19 45 9 54 -45 40 -36 -10
-40 -9 -70 22 -32 31 -32 33 -20 72 7 21 10 42 7 46 -4 3 -26 1 -48 -6 -40
-12 -43 -12 -71 16 -27 28 -28 30 -18 83 l10 55 -245 245 c-135 135 -245 250
-245 255 0 6 41 51 90 100 50 49 90 97 90 106 0 8 -66 82 -147 162 l-146 147
-66 0 -66 0 -373 -373z m448 298 c0 -2 -14 -12 -31 -20 -35 -19 -86 -94 -95
-141 -5 -27 -15 -37 -67 -63 -123 -60 -267 -204 -328 -328 -26 -52 -36 -62
-63 -67 -48 -9 -122 -60 -143 -98 -17 -32 -18 -32 -21 -9 -3 20 53 81 350 378
255 255 359 353 375 353 13 0 23 -2 23 -5z m158 -128 l103 -103 -82 -82 c-45
-45 -83 -82 -85 -82 -2 0 -47 42 -99 94 -87 86 -95 97 -89 123 16 71 88 152
134 153 9 0 62 -46 118 -103z m-188 -204 l95 -98 -192 -191 -192 -190 -97 97
-96 97 26 52 c58 116 187 245 302 304 27 14 51 26 54 26 3 0 48 -44 100 -97z
m170 -102 c0 -13 -28 -33 -41 -29 -8 3 -6 9 5 21 19 18 36 22 36 8z m210 -296
c182 -182 233 -238 225 -249 -6 -8 -65 -86 -133 -174 l-123 -159 -52 -7 -52
-6 -235 235 -235 235 180 180 c99 99 182 180 185 180 3 0 111 -106 240 -235z
m-797 -10 c53 -52 97 -97 97 -99 0 -2 -37 -40 -82 -85 l-82 -82 -103 103 c-57
56 -103 109 -103 117 0 51 93 128 171 140 3 1 49 -42 102 -94z m154 -132 c-25
-26 -40 -10 -15 16 15 17 23 20 26 12 2 -7 -3 -20 -11 -28z m900 -171 c1 -21
-5 -30 -30 -43 -24 -12 -53 -51 -114 -150 -45 -74 -82 -142 -82 -151 -1 -13
-9 -18 -29 -18 -52 0 -70 42 -27 62 22 10 215 237 215 253 0 10 52 75 59 75 3
0 7 -12 8 -28z m21 -129 c-8 -10 -50 -73 -93 -141 l-78 -123 -23 22 c-13 12
-20 27 -16 33 4 7 45 72 91 145 l84 132 26 -25 c23 -23 23 -27 9 -43z m104 2
c6 -26 3 -33 -27 -57 -18 -16 -44 -45 -56 -66 -13 -20 -46 -73 -75 -117 -29
-45 -56 -93 -59 -107 -5 -20 -11 -25 -28 -20 -44 11 -51 61 -12 82 14 7 54 59
88 114 95 151 107 172 107 190 0 13 7 17 27 14 20 -2 29 -10 35 -33z m20 -92
c10 -9 18 -20 18 -24 0 -11 -169 -273 -179 -277 -4 -1 -16 7 -26 18 -17 19
-17 22 35 102 29 46 69 109 89 141 20 31 38 57 40 57 3 0 13 -7 23 -17z m111
-20 c4 -2 5 -8 2 -13 -3 -5 -1 -11 5 -15 18 -11 11 -31 -14 -43 -43 -19 -206
-264 -206 -309 0 -26 0 -26 -33 -14 -15 6 -26 20 -29 36 -5 22 3 35 36 68 57
58 181 255 178 284 -2 21 1 23 26 17 15 -4 30 -9 35 -11z m15 -189 c-19 -27
-61 -91 -93 -142 l-58 -93 -24 22 c-20 20 -21 25 -10 43 8 12 49 76 92 144
l79 123 24 -24 24 -24 -34 -49z m106 57 c31 -12 30 -58 -3 -77 -28 -17 -146
-190 -184 -271 -29 -63 -61 -71 -70 -17 -5 31 -2 40 18 56 33 26 185 256 192
291 6 28 14 31 47 18z m38 -118 c10 -9 18 -20 18 -24 0 -6 -162 -262 -176
-278 -7 -7 -45 32 -42 44 4 15 171 275 177 275 2 0 13 -7 23 -17z m116 -47 c2
-25 -3 -35 -20 -45 -34 -18 -198 -270 -198 -303 0 -15 -6 -19 -27 -16 -20 2
-29 10 -35 33 -7 26 -4 33 24 54 26 21 78 95 167 239 12 18 23 43 27 56 4 18
11 22 33 18 22 -3 27 -9 29 -36z m34 -121 c-4 -6 -45 -71 -91 -143 l-85 -132
-23 22 c-20 19 -21 24 -10 42 8 12 49 76 92 144 l78 123 23 -22 c13 -13 20
-27 16 -34z m82 19 c9 -3 16 -14 16 -24 0 -11 5 -22 10 -25 16 -10 12 -25 -7
-25 -19 -1 -63 -33 -63 -45 0 -4 -19 -35 -43 -69 -86 -120 -117 -179 -110
-206 5 -21 3 -23 -8 -12 -7 6 -20 12 -29 12 -9 0 -20 12 -26 27 -8 24 -4 32
36 73 49 49 164 229 175 273 7 27 19 32 49 21z m42 -125 c13 -14 15 -24 9 -34
-6 -8 -44 -67 -85 -132 -41 -64 -78 -121 -82 -127 -8 -12 -50 23 -46 39 5 18
171 275 178 275 4 0 15 -9 26 -21z m79 -9 c43 0 48 -56 7 -84 -33 -22 -169
-229 -185 -281 -8 -27 -16 -35 -34 -35 -14 0 -26 7 -29 18 -3 9 -10 25 -15 34
-13 24 -12 25 19 31 17 4 36 20 51 44 14 21 46 70 71 108 58 86 91 150 87 167
-2 7 -2 10 0 6 3 -5 15 -8 28 -8z m67 -155 c-4 -6 -45 -71 -91 -144 l-85 -132
-24 24 -23 24 58 89 c32 49 74 113 92 142 l34 53 23 -22 c13 -12 20 -27 16
-34z m98 5 c0 -8 3 -25 6 -37 4 -16 2 -23 -8 -23 -8 0 -26 -12 -40 -27 -42
-44 -158 -236 -158 -260 0 -13 -6 -23 -12 -23 -7 0 -22 -3 -34 -6 -18 -5 -22
0 -27 26 -6 26 -2 35 22 56 16 13 48 54 72 91 23 38 60 94 81 127 21 32 38 67
38 77 0 15 6 19 30 17 19 -1 30 -8 30 -18z m13 -117 c14 -25 11 -31 -62 -139
-42 -62 -79 -113 -82 -114 -3 0 -13 6 -22 13 -15 11 -8 25 65 140 45 70 83
127 85 127 1 0 9 -12 16 -27z m84 -45 c0 -18 3 -46 8 -62 7 -25 6 -28 -9 -23
-9 4 -26 1 -37 -6 -25 -15 -109 -147 -109 -170 0 -13 -9 -17 -35 -17 -48 0
-55 23 -17 55 37 31 121 153 147 213 23 52 51 57 52 10z m6 -135 c13 -25 12
-30 -30 -89 -41 -60 -45 -62 -69 -52 -13 6 -23 14 -22 17 7 14 101 151 104
151 2 0 10 -12 17 -27z m70 -40 c3 -16 8 -38 12 -50 6 -19 4 -23 -13 -23 -24
0 -72 -54 -72 -81 0 -14 -7 -19 -29 -19 -44 0 -46 16 -8 54 35 34 89 117 86
132 -3 17 1 25 10 20 5 -3 11 -18 14 -33z m25 -150 c12 -25 20 -48 18 -50 -4
-4 -58 24 -84 43 -5 4 29 54 37 54 3 -1 16 -22 29 -47z m76 -79 c9 -33 5 -37
-28 -28 -28 7 -33 23 -14 42 19 19 35 14 42 -14z"/>
</g>
</svg>
