<?xml version="1.0" standalone="no"?>
<!DOCTYPE svg PUBLIC "-//W3C//DTD SVG 20010904//EN"
 "http://www.w3.org/TR/2001/REC-SVG-20010904/DTD/svg10.dtd">
<svg version="1.0" xmlns="http://www.w3.org/2000/svg"
 width="512.000000pt" height="512.000000pt" viewBox="0 0 512.000000 512.000000"
 preserveAspectRatio="xMidYMid meet">
<metadata>
Created by potrace 1.16, written by Peter Selinger 2001-2019
</metadata>
<g transform="translate(0.000000,512.000000) scale(0.100000,-0.100000)"
fill="#000000" stroke="none">
<path d="M22 4182 c-16 -13 -23 -26 -20 -43 2 -18 173 -188 604 -600 496 -474
1372 -1317 1805 -1736 59 -58 103 -93 116 -93 29 0 66 47 53 69 -15 26 -420
423 -915 896 -252 242 -713 684 -1023 983 -310 298 -572 542 -581 542 -9 0
-27 -9 -39 -18z"/>
<path d="M682 2790 c-18 -11 -41 -34 -52 -52 -19 -31 -20 -51 -20 -325 l0
-293 299 0 c259 0 302 -2 315 -16 22 -21 20 -40 -6 -58 -19 -14 -66 -16 -315
-16 l-293 0 0 -50 0 -50 293 0 c249 0 296 -2 315 -16 26 -18 28 -37 6 -58 -13
-14 -56 -16 -315 -16 l-299 0 0 -55 0 -55 303 0 c306 0 327 -2 327 -36 0 -7
-7 -20 -16 -28 -13 -14 -56 -16 -310 -16 l-295 0 6 -22 c9 -32 49 -65 93 -77
22 -7 179 -11 399 -11 l362 0 27 48 c15 26 40 62 56 80 l28 33 0 159 0 160
231 0 c127 0 229 4 227 8 -1 5 -184 183 -406 395 l-403 387 -262 0 c-244 0
-264 -1 -295 -20z"/>
<path d="M1661 2801 c2 -5 133 -134 291 -286 257 -246 290 -275 308 -265 19
10 20 20 20 188 0 97 -4 194 -9 215 -12 50 -45 97 -90 128 -35 24 -40 24 -280
27 -158 2 -242 0 -240 -7z"/>
<path d="M2840 2502 c-50 -25 -80 -74 -80 -133 l0 -49 396 0 396 0 -6 38 c-10
53 -54 112 -105 139 -43 22 -51 23 -305 23 -229 0 -265 -2 -296 -18z"/>
<path d="M2381 2220 c-18 -4 -42 -17 -53 -27 -19 -19 -18 -21 65 -96 l85 -77
826 0 826 0 0 30 c0 37 -29 97 -62 127 -58 55 -34 53 -875 52 -428 -1 -793 -5
-812 -9z"/>
<path d="M1680 1849 c0 -61 3 -80 13 -76 109 48 149 60 223 65 134 8 261 -35
363 -125 96 -83 171 -233 171 -339 l0 -44 663 0 663 0 16 86 c48 254 252 428
503 427 243 0 460 -189 498 -433 l11 -70 158 0 158 0 0 38 c0 22 -9 74 -20
116 -51 199 -177 331 -390 408 l-65 23 -1037 3 c-571 1 -1038 0 -1038 -3 0 -3
23 -27 50 -53 46 -45 50 -52 50 -96 0 -74 -40 -129 -108 -151 -58 -17 -87 1
-250 155 l-157 150 -237 0 -238 0 0 -81z"/>
<path d="M1895 1754 c-158 -33 -259 -107 -317 -231 -110 -235 7 -505 251 -579
60 -18 183 -18 245 1 261 79 370 386 221 620 -85 134 -262 217 -400 189z m151
-255 c95 -58 114 -185 42 -273 -73 -88 -199 -90 -275 -3 -43 50 -57 103 -42
163 14 55 71 118 121 133 45 14 114 5 154 -20z"/>
<path d="M4175 1736 c-116 -37 -207 -116 -258 -224 -56 -117 -49 -274 17 -386
135 -231 462 -271 652 -82 218 219 126 590 -170 689 -59 20 -183 21 -241 3z
m183 -221 c49 -21 81 -52 103 -100 23 -50 23 -89 0 -140 -20 -46 -79 -102
-117 -111 -51 -13 -123 2 -161 32 -55 45 -75 89 -71 156 5 73 37 120 102 153
58 29 92 31 144 10z"/>
</g>
</svg>
