<?xml version="1.0" standalone="no"?>
<!DOCTYPE svg PUBLIC "-//W3C//DTD SVG 20010904//EN"
 "http://www.w3.org/TR/2001/REC-SVG-20010904/DTD/svg10.dtd">
<svg version="1.0" xmlns="http://www.w3.org/2000/svg"
 width="225.000000pt" height="225.000000pt" viewBox="0 0 225.000000 225.000000"
 preserveAspectRatio="xMidYMid meet">
<metadata>
Created by potrace 1.10, written by Peter Selinger 2001-2011
</metadata>
<g transform="translate(0.000000,225.000000) scale(0.050000,-0.050000)"
fill="#000000" stroke="none">
<path d="M1047 4440 c-83 -33 -76 -63 40 -171 208 -194 198 -261 -79 -527
-197 -188 -248 -270 -248 -392 0 -241 373 -533 536 -419 63 45 57 58 -65 139
-275 183 -263 343 45 624 286 260 301 419 60 636 -140 126 -197 147 -289 110z"/>
<path d="M2146 4446 c-105 -20 -100 -63 23 -182 204 -200 195 -263 -68 -507
-372 -342 -349 -630 64 -817 210 -96 335 17 144 130 -265 155 -263 343 6 584
266 238 315 350 227 522 -44 86 -226 264 -270 264 -16 0 -41 3 -55 7 -15 4
-47 4 -71 -1z"/>
<path d="M3207 4441 c-80 -34 -73 -62 51 -191 190 -197 183 -237 -85 -498
-365 -356 -346 -617 58 -813 209 -101 329 17 145 141 -273 183 -264 310 38
600 316 304 325 453 41 685 -99 81 -179 105 -248 76z"/>
<path d="M849 2752 c-162 -75 -289 -271 -289 -446 0 -42 -8 -46 -107 -46 -452
0 -438 -660 15 -709 l129 -14 7 -553 c7 -631 21 -697 181 -834 221 -188 597
-106 735 162 49 96 50 104 56 662 l6 566 88 0 88 0 6 -566 c6 -561 6 -566 57
-664 176 -341 658 -346 847 -10 l62 110 6 575 c5 457 12 575 33 575 14 0 54
-6 88 -12 l63 -13 0 -520 c0 -618 5 -641 161 -799 241 -243 582 -217 792 60
98 128 107 187 107 748 0 572 -14 518 145 545 377 64 305 691 -79 691 l-104 0
-12 75 c-35 222 -114 341 -279 417 -312 146 -691 -90 -691 -429 0 -63 0 -63
-108 -63 l-107 0 -15 95 c-87 588 -894 591 -964 4 l-12 -99 -104 0 -105 0 -13
103 c-46 340 -380 531 -683 389z m1546 -280 l75 -69 0 -970 c0 -953 -1 -971
-42 -1027 -100 -134 -297 -117 -373 34 -33 64 -35 145 -30 1017 l5 946 75 69
c102 93 188 93 290 0z m1172 40 c37 -15 86 -52 110 -83 l44 -56 -5 -945 -6
-946 -69 -71 c-127 -131 -350 -131 -446 -1 -35 48 -16 1978 20 2024 73 93 232
129 352 78z m-2305 -50 l58 -59 0 -943 c0 -1036 0 -1036 -119 -1106 -100 -60
-198 -51 -264 23 l-57 64 0 986 c0 919 2 989 35 1019 102 92 263 99 347 16z
m-702 -553 c0 -70 -2 -71 -73 -65 -141 12 -136 136 5 136 65 0 68 -4 68 -71z
m1200 -19 l0 -90 -90 0 -90 0 0 90 0 90 90 0 90 0 0 -90z m1160 0 l0 -90 -90
0 -90 0 0 90 0 90 90 0 90 0 0 -90z m1216 66 c57 -57 -6 -156 -99 -156 -54 0
-57 4 -57 90 0 95 89 133 156 66z"/>
</g>
</svg>
