<?xml version="1.0" standalone="no"?>
<!DOCTYPE svg PUBLIC "-//W3C//DTD SVG 20010904//EN"
 "http://www.w3.org/TR/2001/REC-SVG-20010904/DTD/svg10.dtd">
<svg version="1.0" xmlns="http://www.w3.org/2000/svg"
 width="1239.000000pt" height="1280.000000pt" viewBox="0 0 1239.000000 1280.000000"
 preserveAspectRatio="xMidYMid meet">
<g transform="translate(0.000000,1280.000000) scale(0.100000,-0.100000)"
fill="#000000" stroke="none">
<path d="M1115 12578 c-295 -200 -332 -228 -350 -265 -13 -28 -27 -42 -39 -43
-11 0 -45 -17 -77 -37 -62 -40 -65 -46 -94 -201 -5 -21 -15 -36 -28 -42 -12
-5 -123 -20 -247 -35 -124 -15 -227 -29 -229 -31 -2 -2 -12 -63 -21 -136 -10
-73 -21 -140 -24 -149 -6 -13 33 -31 211 -99 120 -45 228 -89 240 -96 21 -13
22 -18 16 -114 l-6 -100 55 -53 c30 -28 62 -58 71 -65 10 -7 17 -23 17 -35 0
-12 8 -34 18 -49 21 -32 457 -521 499 -559 22 -21 52 -31 147 -49 92 -18 123
-21 137 -12 21 14 74 6 108 -16 17 -10 234 -41 690 -99 551 -69 680 -82 747
-77 67 5 87 3 115 -12 19 -10 76 -23 128 -29 90 -11 93 -10 101 9 23 56 72
313 95 490 14 109 28 202 31 207 7 11 45 11 62 0 11 -6 3 -89 -39 -434 -57
-463 -57 -470 -2 -483 15 -4 37 -15 48 -25 18 -16 710 -203 904 -244 145 -30
231 -17 231 36 0 11 7 22 16 26 16 6 280 -24 296 -34 5 -3 0 -15 -11 -27 -17
-18 -23 -42 -29 -122 -14 -164 8 -269 65 -314 32 -25 126 -60 161 -60 55 0 72
-11 93 -61 23 -52 82 -113 127 -130 14 -6 60 -17 100 -24 222 -43 327 -166
362 -428 21 -162 12 -250 -50 -464 -47 -160 -58 -243 -40 -297 19 -57 64 -102
128 -127 52 -20 82 -23 352 -29 162 -4 296 -8 298 -9 8 -4 -1 -26 -24 -61 -52
-78 -17 -109 184 -162 64 -16 134 -39 155 -50 101 -51 160 -146 177 -285 5
-43 17 -233 25 -423 18 -407 12 -351 168 -1452 118 -826 125 -868 147 -886 24
-19 24 -19 7 -73 -9 -30 -19 -83 -22 -119 -10 -98 -22 -135 -57 -169 -41 -40
-62 -46 -262 -76 -93 -13 -212 -36 -265 -51 -117 -31 -274 -105 -359 -168
l-63 -46 3 -98 3 -97 95 -21 c52 -12 104 -25 115 -29 31 -13 75 -45 75 -56 0
-18 -94 -111 -133 -131 -22 -11 -74 -23 -117 -27 -86 -9 -143 -33 -173 -73
-15 -21 -19 -47 -22 -166 -4 -140 -5 -143 -42 -220 -38 -76 -38 -78 -37 -197
0 -93 6 -138 23 -200 21 -76 24 -115 41 -775 11 -382 23 -738 28 -790 32 -330
251 -562 613 -650 111 -27 294 -37 1109 -57 366 -9 733 -19 815 -21 149 -4
329 6 605 34 517 53 883 208 971 412 23 52 30 135 48 607 43 1075 41 1050 73
1140 49 134 46 244 -9 364 -19 41 -24 65 -20 97 3 34 0 47 -14 60 -23 20 -24
37 -5 54 8 6 16 33 18 58 l3 47 160 5 c141 5 165 8 203 28 99 52 164 153 170
264 6 92 -17 154 -80 224 -66 72 -198 137 -478 234 -271 95 -388 150 -467 224
-70 65 -131 155 -167 248 -41 103 -48 143 -36 186 6 20 10 75 8 122 l-3 85
-43 -2 c-57 -3 -51 11 24 57 l59 35 3 95 c6 171 -26 679 -68 1105 -40 400
-139 1125 -260 1905 -93 605 -104 691 -96 772 18 190 133 315 324 348 52 9
176 8 542 -3 261 -8 480 -12 487 -10 6 3 23 22 38 44 26 40 45 44 45 8 0 -11
7 -19 18 -19 9 0 109 -9 222 -20 113 -11 239 -20 280 -20 188 0 333 74 490
251 306 343 532 760 611 1126 40 190 37 221 -32 301 -27 30 -29 39 -29 113 0
65 4 86 20 109 26 36 50 104 50 139 -1 36 -31 100 -69 143 -38 44 -73 175 -60
223 15 49 10 127 -10 171 -10 22 -44 63 -75 90 -40 34 -68 70 -93 119 -84 164
-164 219 -392 266 -52 10 -100 24 -108 30 -7 6 -13 26 -13 45 0 72 -46 139
-118 172 -47 21 -64 24 -131 20 -96 -6 -162 -34 -217 -94 l-42 -45 -434 60
c-472 66 -802 112 -972 136 -107 15 -126 23 -126 56 0 11 -23 26 -65 44 l-64
28 -173 -12 c-421 -30 -1232 69 -1598 194 l-75 26 -72 -17 c-65 -16 -73 -20
-78 -45 -4 -15 -12 -29 -18 -32 -7 -2 -106 8 -222 24 -115 15 -385 51 -600 79
l-390 52 -44 49 c-61 70 -109 93 -196 93 -69 0 -142 -25 -161 -55 -4 -8 -37
-9 -108 -4 -118 8 -124 4 -148 -80 -11 -39 -18 -51 -37 -53 -16 -3 -24 2 -28
17 -3 12 -9 21 -12 21 -26 0 -415 51 -422 56 -5 3 -9 18 -9 34 0 36 -20 56
-73 72 -57 17 -1062 17 -1080 -1 -6 -6 -26 -11 -44 -11 -42 0 -69 -27 -77 -76
-3 -22 -26 -210 -51 -419 -25 -209 -48 -386 -50 -392 -6 -19 -64 -16 -72 3 -3
8 5 102 17 207 15 122 24 253 24 357 l1 165 -95 12 c-62 8 -105 9 -123 3 -35
-12 -80 -5 -132 20 -30 14 -149 32 -470 70 -236 28 -542 65 -678 81 -186 23
-256 28 -277 20 -34 -11 -100 -3 -115 15 -5 6 -46 14 -90 18 -44 3 -98 8 -120
12 -39 6 -48 1 -370 -218z m9533 -9235 c51 -38 67 -70 67 -133 0 -66 -18 -99
-75 -137 -68 -47 -176 -19 -219 57 -47 84 -10 192 79 229 37 16 117 7 148 -16z"/>
</g>
</svg>
