<?xml version="1.0" standalone="no"?>
<!DOCTYPE svg PUBLIC "-//W3C//DTD SVG 20010904//EN"
 "http://www.w3.org/TR/2001/REC-SVG-20010904/DTD/svg10.dtd">
<svg version="1.0" xmlns="http://www.w3.org/2000/svg"
 width="512.000000pt" height="512.000000pt" viewBox="0 0 512.000000 512.000000"
 preserveAspectRatio="xMidYMid meet">
<metadata>
Created by potrace 1.16, written by Peter Selinger 2001-2019
</metadata>
<g transform="translate(0.000000,512.000000) scale(0.100000,-0.100000)"
fill="#000000" stroke="none">
<path d="M940 4954 c-53 -11 -174 -47 -214 -64 -56 -24 -76 -45 -76 -82 0 -28
38 -70 319 -352 346 -349 347 -350 339 -452 -6 -74 -46 -130 -117 -166 -59
-30 -102 -34 -166 -17 -33 9 -93 63 -361 330 -284 282 -324 319 -352 319 -42
0 -65 -27 -96 -111 -45 -121 -59 -216 -53 -367 7 -198 48 -330 152 -488 123
-185 320 -325 545 -385 111 -30 336 -33 445 -6 l69 18 271 -271 c148 -148 275
-270 280 -270 13 0 605 592 605 605 0 5 -122 132 -271 281 l-272 272 19 73
c23 95 24 303 2 405 -77 343 -335 614 -676 710 -56 15 -337 28 -392 18z"/>
<path d="M2690 4934 c-119 -15 -250 -61 -250 -89 0 -20 5 -22 156 -56 147 -33
307 -85 388 -126 155 -79 296 -209 354 -325 59 -120 60 -227 3 -348 -35 -74
-32 -106 13 -173 l24 -34 -699 -699 c-385 -385 -699 -702 -699 -705 0 -3 76
-82 170 -175 l169 -170 703 703 702 702 26 -23 c73 -67 149 -95 206 -76 64 21
140 -19 330 -173 l112 -92 -33 -36 c-18 -20 -38 -53 -45 -73 -32 -99 46 -206
152 -206 63 0 111 37 310 237 165 167 198 205 207 241 46 170 -160 275 -283
143 -17 -17 -33 -31 -37 -31 -4 0 -31 37 -60 82 -49 76 -53 87 -60 164 -6 74
-13 95 -63 191 -89 170 -220 337 -377 480 -399 364 -742 569 -1078 644 -85 18
-273 31 -341 23z"/>
<path d="M2827 2292 c-163 -163 -297 -302 -297 -307 0 -5 136 -146 301 -311
l302 -302 -19 -73 c-23 -95 -24 -303 -2 -405 68 -301 279 -553 558 -667 134
-54 177 -62 360 -62 173 0 245 13 364 66 59 26 76 44 76 81 0 28 -38 70 -319
352 -347 350 -348 351 -338 452 8 75 47 131 116 167 59 29 102 33 166 16 33
-9 93 -63 361 -330 284 -282 324 -319 352 -319 42 0 65 27 96 111 45 121 59
216 53 367 -6 193 -46 325 -142 474 -126 194 -325 337 -555 399 -112 31 -337
33 -444 5 l-69 -18 -301 301 c-166 165 -306 301 -311 301 -6 0 -144 -134 -308
-298z"/>
<path d="M1763 2260 c-40 -24 -1590 -1412 -1617 -1448 -27 -35 -27 -109 1
-148 12 -16 122 -129 245 -251 188 -186 229 -222 260 -228 81 -15 57 -39 820
812 392 437 721 807 730 822 20 29 23 95 8 138 -14 37 -266 291 -307 309 -45
20 -102 17 -140 -6z"/>
</g>
</svg>
