<?xml version="1.0" standalone="no"?>
<!DOCTYPE svg PUBLIC "-//W3C//DTD SVG 20010904//EN"
 "http://www.w3.org/TR/2001/REC-SVG-20010904/DTD/svg10.dtd">
<svg version="1.0" xmlns="http://www.w3.org/2000/svg"
 width="300.000000pt" height="301.000000pt" viewBox="0 0 300.000000 301.000000"
 preserveAspectRatio="xMidYMid meet">
<metadata>
Created by potrace 1.10, written by Peter Selinger 2001-2011
</metadata>
<g transform="translate(0.000000,301.000000) scale(0.100000,-0.100000)"
fill="#000000" stroke="none">
<path d="M1464 3000 c-49 -20 -54 -42 -54 -228 l0 -174 29 -29 c37 -37 79 -38
120 -3 l31 26 0 182 c0 177 -1 183 -23 204 -27 25 -73 35 -103 22z"/>
<path d="M459 2585 c-32 -18 -53 -66 -45 -101 7 -28 168 -200 230 -245 48 -36
76 -36 114 -4 35 30 47 67 31 98 -16 29 -107 128 -185 200 -68 62 -104 75
-145 52z"/>
<path d="M2465 2590 c-32 -13 -255 -245 -256 -266 -3 -43 4 -60 32 -86 56 -53
76 -44 220 100 113 112 129 131 129 160 0 44 -14 68 -50 87 -32 17 -46 18 -75
5z"/>
<path d="M1280 2415 c-175 -46 -302 -120 -434 -251 -121 -121 -186 -227 -242
-394 -28 -81 -29 -93 -29 -265 0 -171 2 -184 29 -265 16 -47 40 -107 53 -135
75 -149 205 -296 344 -387 47 -31 79 -60 79 -70 0 -9 12 -30 26 -47 l26 -31
367 0 c409 0 401 -1 421 68 9 31 23 45 82 82 297 188 474 557 429 895 -49 366
-303 668 -661 787 -86 28 -109 31 -245 35 -135 3 -159 1 -245 -22z m410 -181
c208 -46 407 -211 495 -409 47 -108 59 -170 59 -320 1 -120 -2 -151 -22 -215
-77 -246 -248 -423 -478 -496 -206 -66 -455 -41 -634 63 -36 21 -101 74 -145
118 -65 65 -90 98 -128 175 -66 132 -81 198 -81 355 0 156 15 222 80 354 38
77 62 110 128 176 188 190 446 260 726 199z"/>
<path d="M1395 1666 c-52 -24 -122 -92 -148 -143 -9 -16 -27 -34 -41 -41 -43
-19 -116 -93 -141 -142 -47 -93 -41 -166 16 -195 75 -39 126 -1 144 107 7 43
21 53 95 69 57 12 77 34 87 95 8 56 19 71 56 83 26 9 43 8 73 -1 40 -13 43
-18 64 -105 12 -48 37 -66 108 -78 45 -7 72 -34 72 -71 0 -97 97 -149 161 -85
21 21 29 39 29 64 0 84 -66 193 -148 242 -28 17 -58 45 -68 63 -27 51 -125
136 -171 150 -63 19 -132 15 -188 -12z"/>
<path d="M50 1587 c-79 -40 -57 -155 34 -172 56 -11 318 -1 343 13 33 19 47
73 29 115 -11 28 -23 38 -53 46 -55 15 -322 14 -353 -2z"/>
<path d="M2583 1588 c-29 -14 -55 -71 -47 -102 3 -13 17 -35 31 -48 24 -22 30
-23 205 -23 l180 0 24 28 c32 37 32 87 0 124 l-24 28 -174 2 c-111 2 -181 -1
-195 -9z"/>
<path d="M1109 441 c-38 -38 -40 -88 -4 -123 22 -23 37 -27 121 -33 53 -4 220
-4 372 0 270 8 276 8 299 31 36 36 32 95 -8 128 l-31 26 -360 0 -360 0 -29
-29z"/>
<path d="M1224 176 c-59 -26 -66 -104 -14 -151 21 -19 36 -20 279 -20 141 0
268 3 283 8 57 16 74 110 27 153 -19 17 -42 19 -283 21 -207 2 -268 0 -292
-11z"/>
</g>
</svg>
