<?xml version="1.0" standalone="no"?>
<!DOCTYPE svg PUBLIC "-//W3C//DTD SVG 20010904//EN"
 "http://www.w3.org/TR/2001/REC-SVG-20010904/DTD/svg10.dtd">
<svg version="1.0" xmlns="http://www.w3.org/2000/svg"
 width="300.000000pt" height="302.000000pt" viewBox="0 0 300.000000 302.000000"
 preserveAspectRatio="xMidYMid meet">
<metadata>
Created by potrace 1.10, written by Peter Selinger 2001-2011
</metadata>
<g transform="translate(0.000000,302.000000) scale(0.050000,-0.050000)"
fill="#000000" stroke="none">
<path d="M225 5795 l-225 -226 116 -348 117 -349 348 -116 349 -116 958 -958
957 -957 -68 -137 c-126 -258 -84 -556 117 -832 101 -140 1007 -1062 1366
-1391 495 -456 850 -476 1279 -72 445 419 557 742 381 1100 -127 258 -1591
1738 -1830 1850 -231 108 -364 103 -685 -26 l-66 -26 -954 955 -955 955 -129
349 -130 350 -330 110 c-413 137 -353 149 -616 -115z m3737 -3268 c124 -83
1311 -1243 1334 -1301 42 -110 46 -145 23 -229 -43 -162 -225 -279 -386 -249
-125 24 -1428 1276 -1472 1416 -88 279 256 529 501 363z"/>
</g>
</svg>
