<?xml version="1.0" standalone="no"?>
<!DOCTYPE svg PUBLIC "-//W3C//DTD SVG 20010904//EN"
 "http://www.w3.org/TR/2001/REC-SVG-20010904/DTD/svg10.dtd">
<svg version="1.0" xmlns="http://www.w3.org/2000/svg"
 width="300.000000pt" height="353.000000pt" viewBox="0 0 300.000000 353.000000"
 preserveAspectRatio="xMidYMid meet">
<metadata>
Created by potrace 1.10, written by Peter Selinger 2001-2011
</metadata>
<g transform="translate(0.000000,353.000000) scale(0.100000,-0.100000)"
fill="#000000" stroke="none">
<path d="M1366 3385 c-169 -28 -186 -41 -186 -146 0 -36 16 -175 35 -309 19
-134 35 -253 35 -265 0 -16 -7 -24 -26 -28 -23 -4 -28 1 -46 42 -30 70 -82
252 -109 378 -13 62 -27 113 -30 113 -16 0 -144 -140 -186 -204 -56 -84 -108
-215 -125 -317 -8 -53 -20 -86 -42 -117 -29 -41 -31 -49 -35 -157 -3 -102 -1
-114 16 -123 10 -6 113 -18 228 -28 285 -24 927 -24 1202 0 105 9 198 16 207
16 36 0 46 28 46 129 0 92 -2 102 -34 162 -19 35 -37 87 -41 114 -20 133 -82
272 -173 387 -63 79 -132 143 -142 130 -4 -4 -16 -55 -28 -113 -24 -116 -71
-285 -101 -364 -19 -51 -41 -65 -70 -46 -12 8 -11 32 9 163 42 286 49 353 50
430 0 96 -11 108 -118 137 -105 28 -227 33 -336 16z"/>
<path d="M800 2071 c0 -49 28 -169 50 -211 11 -22 33 -55 50 -73 16 -19 45
-71 64 -115 59 -142 157 -258 295 -352 165 -111 298 -116 464 -18 85 49 196
153 250 233 22 32 56 95 74 140 19 44 47 94 63 110 43 44 79 132 92 224 7 44
10 82 7 84 -2 3 -44 1 -94 -4 -166 -17 -837 -23 -1065 -10 -118 7 -223 14
-232 17 -14 4 -18 -1 -18 -25z"/>
<path d="M765 1265 c-110 -35 -254 -80 -320 -101 -159 -49 -174 -64 -204 -206
-33 -160 -71 -395 -71 -442 0 -31 6 -48 21 -62 20 -18 58 -19 1268 -22 685 -2
1265 0 1289 3 57 8 82 34 82 85 0 49 -87 525 -100 550 -19 36 -64 60 -164 91
-55 17 -192 59 -303 95 -110 35 -213 64 -227 64 -20 0 -46 -20 -104 -78 -120
-122 -261 -182 -429 -182 -110 0 -172 14 -273 62 -70 33 -100 55 -167 124 -45
46 -86 84 -90 83 -4 0 -98 -29 -208 -64z"/>
</g>
</svg>
