<?xml version="1.0" standalone="no"?>
<!DOCTYPE svg PUBLIC "-//W3C//DTD SVG 20010904//EN"
 "http://www.w3.org/TR/2001/REC-SVG-20010904/DTD/svg10.dtd">
<svg version="1.0" xmlns="http://www.w3.org/2000/svg"
 width="300.000000pt" height="159.000000pt" viewBox="0 0 300.000000 159.000000"
 preserveAspectRatio="xMidYMid meet">
<metadata>
Created by potrace 1.10, written by Peter Selinger 2001-2011
</metadata>
<g transform="translate(0.000000,159.000000) scale(0.050000,-0.050000)"
fill="#000000" stroke="none">
<path d="M1731 3149 c-32 -17 -71 -48 -86 -70 -25 -35 -51 -39 -274 -39 l-247
0 -101 -110 c-226 -248 -383 -584 -427 -920 l-23 -170 -79 0 c-59 0 -91 13
-126 50 -61 67 -153 67 -220 0 -27 -27 -72 -50 -100 -50 -80 0 -65 -187 15
-196 30 -4 68 -28 86 -55 37 -57 150 -68 191 -19 36 43 231 42 248 -2 27 -71
7 -146 -74 -279 l-87 -139 25 -155 c46 -293 149 -392 421 -404 l137 -6 80
-101 80 -102 254 -1 254 -1 6 -185 6 -185 1138 -5 1137 -5 105 89 c94 80 106
100 118 190 l13 101 85 1 c46 1 157 1 247 -1 l163 -2 114 156 c159 218 263
442 313 678 23 109 45 209 49 223 5 17 58 25 176 25 160 0 170 2 176 45 6 42
18 46 205 57 124 7 202 20 207 35 4 12 20 23 36 23 40 0 35 33 -12 80 -35 35
-67 40 -240 40 -187 0 -200 3 -200 40 0 37 -13 40 -169 40 l-169 0 -12 75
c-61 399 -206 755 -430 1051 l-73 97 -1433 -2 c-1228 -2 -1434 2 -1434 26 0
16 23 35 52 42 42 10 47 18 27 42 -31 37 -74 37 -148 -2z m2852 -324 c152
-238 284 -559 325 -786 11 -63 5 -76 -47 -115 -169 -125 -167 -465 2 -562 62
-36 62 -36 -6 -271 -58 -198 -267 -591 -315 -591 -7 0 -48 52 -89 115 -447
676 -476 1544 -74 2170 119 185 112 184 204 40z m-3103 3 c0 -17 -578 -930
-610 -964 -65 -70 30 414 120 613 28 62 89 169 136 238 l84 125 135 0 c74 0
135 -6 135 -12z m361 -47 c-23 -32 -65 -97 -93 -145 l-50 -86 13 130 c17 161
16 160 102 160 l70 0 -42 -59z m2299 -1 l-43 -60 -1018 0 c-561 0 -1019 5
-1019 11 0 6 15 33 32 60 l33 49 1029 0 1029 0 -43 -60z m-120 -209 c0 -5 -10
-32 -23 -60 l-23 -51 -1027 0 c-565 0 -1027 4 -1027 9 0 5 10 32 23 60 l23 51
1027 0 c565 0 1027 -4 1027 -9z m-100 -272 c0 -12 -9 -59 -19 -105 -10 -46
-24 -118 -31 -159 l-12 -75 -1029 0 -1029 0 0 45 c1 40 13 104 51 270 l10 45
1029 0 c711 0 1030 -7 1030 -21z m1020 -649 c0 -206 -16 -230 -81 -125 -60 96
-8 315 74 315 4 0 7 -85 7 -190z m-4360 80 c0 -57 -8 -70 -40 -70 -32 0 -40
13 -40 70 0 57 8 70 40 70 32 0 40 -13 40 -70z m3286 -145 c11 -134 60 -353
105 -470 13 -33 -43 -35 -997 -35 -790 0 -1013 -5 -1020 -25 -24 -64 -136 323
-164 570 l-13 115 1039 0 1038 0 12 -155z m1494 75 c0 -44 -8 -80 -17 -80 -10
0 -46 -6 -80 -12 l-63 -13 0 93 0 92 80 0 c80 0 80 0 80 -80z m-3594 -790 c40
-77 90 -167 113 -200 22 -33 41 -67 41 -75 0 -8 -146 -13 -325 -11 -179 2
-255 7 -170 11 l155 7 0 166 c0 91 6 236 13 321 l13 156 44 -118 c25 -64 77
-180 116 -257z m1657 -63 l689 -13 54 -97 c30 -53 54 -102 54 -107 0 -6 -457
-10 -1016 -10 l-1016 0 -64 106 c-35 58 -64 112 -64 120 0 18 472 18 1363 1z
m-1427 -518 c-5 -78 -15 -97 -71 -132 l-65 -41 0 132 0 132 71 0 71 0 -6 -91z
m1784 21 l0 -70 -840 0 -840 0 0 70 0 70 840 0 840 0 0 -70z m300 -13 c0 -50
-13 -99 -33 -120 -40 -45 -67 -47 -67 -7 0 17 18 30 40 30 22 0 40 9 40 20 0
11 -22 20 -50 20 -44 0 -50 9 -50 70 0 64 5 70 60 70 57 0 60 -4 60 -83z
m-295 -136 c17 -62 31 -61 -933 -61 l-921 0 70 49 69 49 853 1 c827 1 853 0
862 -38z"/>
</g>
</svg>
