<?xml version="1.0" standalone="no"?>
<!DOCTYPE svg PUBLIC "-//W3C//DTD SVG 20010904//EN"
 "http://www.w3.org/TR/2001/REC-SVG-20010904/DTD/svg10.dtd">
<svg version="1.0" xmlns="http://www.w3.org/2000/svg"
 width="920.000000pt" height="512.000000pt" viewBox="0 0 920.000000 512.000000"
 preserveAspectRatio="xMidYMid meet">

<g transform="translate(0.000000,512.000000) scale(0.100000,-0.100000)"
fill="#000000" stroke="none">
<path d="M4905 5108 c-127 -24 -261 -126 -317 -240 l-27 -55 -113 -7 c-138 -9
-281 -36 -387 -76 -361 -133 -646 -423 -771 -783 -57 -164 -62 -209 -67 -529
l-5 -298 -119 0 -119 0 0 -740 0 -740 390 0 390 0 0 740 0 740 -121 0 -121 0
5 278 c5 303 13 359 75 507 112 269 347 479 627 560 83 24 320 53 333 41 3 -3
13 -24 23 -45 l18 -40 -56 -26 c-149 -68 -314 -207 -412 -345 -84 -119 -132
-223 -174 -375 l-22 -80 -2 -1797 -3 -1798 1065 0 1065 0 0 1768 c0 1174 -4
1789 -11 1832 -53 332 -271 630 -570 781 -44 21 -79 43 -79 47 1 4 9 23 18 42
l17 35 390 1 390 2 3 151 3 151 -393 0 -393 0 -33 64 c-61 117 -175 203 -311
232 -74 15 -114 16 -186 2z m137 -298 c30 0 97 -69 108 -111 36 -134 -108
-246 -230 -178 -89 50 -107 186 -32 252 27 25 92 48 117 42 11 -3 28 -5 37 -5z
m123 -635 c38 -8 114 -37 170 -64 190 -93 326 -253 395 -466 21 -63 24 -94 28
-317 l4 -248 -613 -2 -614 -3 -1 -1008 0 -1007 613 0 613 0 0 -380 0 -380
-765 0 -766 0 4 1622 c3 1816 -3 1665 76 1832 98 208 278 357 501 415 92 24
255 27 355 6z m-1715 -1795 l0 -440 -80 0 -80 0 0 440 0 440 80 0 80 0 0 -440z
m2310 240 l0 -150 -335 0 -335 0 0 -150 0 -150 335 0 335 0 0 -100 0 -100
-332 -2 -333 -3 0 -150 0 -150 333 -3 332 -2 0 -150 0 -150 -460 0 -460 0 0
705 0 705 460 0 460 0 0 -150z"/>
</g>
</svg>
