<?xml version="1.0" standalone="no"?>
<!DOCTYPE svg PUBLIC "-//W3C//DTD SVG 20010904//EN"
 "http://www.w3.org/TR/2001/REC-SVG-20010904/DTD/svg10.dtd">
<svg version="1.0" xmlns="http://www.w3.org/2000/svg"
 width="452.000000pt" height="452.000000pt" viewBox="0 0 452.000000 452.000000"
 preserveAspectRatio="xMidYMid meet">

<g transform="translate(0.000000,452.000000) scale(0.100000,-0.100000)"
fill="#000000" stroke="none">
<path d="M768 4145 c-61 -34 -56 -125 9 -155 l33 -15 0 -510 0 -510 -92 -28
c-138 -43 -246 -95 -264 -128 -22 -43 -18 -64 33 -161 l47 -91 -40 -30 c-80
-62 -202 -196 -253 -278 -56 -91 -102 -202 -128 -307 -24 -98 -24 -322 1 -427
99 -425 440 -727 875 -776 113 -13 252 0 371 35 l76 22 49 -94 c61 -117 88
-135 158 -108 75 28 223 133 321 226 l93 90 704 2 704 3 100 48 c116 56 218
118 300 182 l58 45 189 0 c201 0 220 4 265 52 52 55 53 68 53 490 0 379 -1
393 -21 436 -13 26 -38 54 -62 70 -40 27 -43 27 -235 30 l-195 3 -86 65 c-47
35 -148 96 -225 134 l-139 70 -707 0 -708 0 -32 38 c-133 155 -368 301 -581
363 l-79 23 0 511 0 511 29 11 c43 16 65 65 51 109 -21 62 -34 64 -357 64
-232 -1 -293 -4 -315 -15z m410 -667 l2 -498 -95 0 -95 0 0 493 c0 272 3 497
7 501 4 4 46 5 93 4 l85 -3 3 -497z m94 -693 c456 -81 809 -439 883 -896 63
-389 -94 -778 -410 -1020 -60 -46 -105 -73 -109 -67 -12 16 -76 138 -76 145 0
5 30 31 66 58 254 191 394 511 356 812 -25 200 -104 371 -236 511 -173 182
-368 275 -606 289 -120 7 -206 -5 -323 -43 -43 -15 -80 -24 -81 -23 -2 2 -20
37 -41 78 -29 58 -34 76 -23 82 24 16 165 60 234 73 90 18 269 19 366 1z m41
-382 c118 -41 187 -84 277 -173 338 -332 271 -883 -137 -1132 -46 -29 -87 -57
-91 -62 -3 -6 -9 -29 -12 -51 l-5 -40 -70 -18 c-102 -27 -284 -25 -390 2 -400
106 -663 494 -606 895 16 110 59 230 116 322 48 77 146 185 197 218 26 17 28
17 54 -3 35 -28 44 -27 141 15 121 52 189 64 323 60 96 -3 129 -8 203 -33z
m1937 -688 l0 -635 -530 0 c-356 0 -530 3 -530 10 0 6 13 36 29 68 87 173 125
341 126 557 0 219 -35 375 -126 558 l-39 77 535 0 535 0 0 -635z m284 585
c103 -49 218 -125 271 -179 l39 -41 203 0 203 0 0 -360 0 -360 -196 0 -196 0
-52 -47 c-28 -25 -85 -68 -126 -95 -73 -48 -209 -118 -230 -118 -7 0 -10 202
-10 620 0 341 3 620 6 620 3 0 43 -18 88 -40z"/>
<path d="M975 2059 c-251 -81 -332 -388 -154 -584 30 -32 73 -65 107 -82 51
-25 68 -28 157 -28 91 0 105 3 158 30 125 63 200 185 200 326 0 160 -99 292
-255 341 -75 23 -137 22 -213 -3z m173 -174 c88 -37 131 -117 111 -206 -19
-85 -87 -139 -174 -139 -153 0 -235 175 -138 291 31 36 94 68 136 69 15 0 44
-7 65 -15z"/>
</g>
</svg>
