<?xml version="1.0" standalone="no"?>
<!DOCTYPE svg PUBLIC "-//W3C//DTD SVG 20010904//EN"
 "http://www.w3.org/TR/2001/REC-SVG-20010904/DTD/svg10.dtd">
<svg version="1.0" xmlns="http://www.w3.org/2000/svg"
 width="300.000000pt" height="240.000000pt" viewBox="0 0 300.000000 240.000000"
 preserveAspectRatio="xMidYMid meet">
<metadata>
Created by potrace 1.10, written by Peter Selinger 2001-2011
</metadata>
<g transform="translate(0.000000,240.000000) scale(0.050000,-0.050000)"
fill="#000000" stroke="none">
<path d="M2760 4574 c-701 -84 -940 -333 -940 -977 l0 -215 95 -7 95 -8 -111
-3 c-96 -4 -119 4 -180 55 -38 33 -84 60 -103 60 -18 1 -39 10 -46 21 -43 69
-187 -12 -158 -88 8 -21 -3 -37 -34 -49 -36 -13 -108 -147 -322 -594 l-276
-577 56 -61 c114 -124 114 -121 32 -196 -44 -40 -68 -78 -60 -92 23 -36 161
-28 198 12 27 31 71 35 369 33 370 -1 385 -5 385 -87 0 -60 47 -77 230 -83 44
-1 64 -7 45 -12 -19 -5 -35 -12 -35 -15 0 -87 69 -638 92 -736 111 -467 609
-761 1095 -647 353 83 610 228 1077 609 78 64 67 50 -44 -57 -481 -460 -1129
-700 -1526 -565 -141 48 -157 6 -24 -63 350 -183 1099 111 1621 636 337 339
389 465 620 1499 94 419 176 785 183 811 10 39 6 46 -21 36 -18 -7 -33 -5 -33
4 0 10 -20 24 -45 32 l-45 15 48 9 c26 5 70 -2 97 -17 72 -38 104 14 95 160
-7 99 -6 103 8 33 l16 -80 3 76 c3 80 -43 214 -73 214 -10 0 -24 33 -31 73
-30 189 -136 268 -763 573 -662 321 -860 355 -1590 268z m1172 -125 c98 -39
336 -148 528 -242 352 -172 383 -201 225 -206 -25 0 -45 -8 -45 -16 1 -31 94
-175 112 -172 10 1 77 8 148 14 l130 11 -148 -28 c-171 -33 -169 -33 -222 71
-50 98 -51 139 -1 139 130 0 -203 187 -719 403 -126 53 -220 96 -208 96 13 1
103 -31 200 -70z m964 -526 c5 -28 -4 -43 -23 -43 -39 0 -60 34 -45 73 17 42
61 23 68 -30z m284 -348 c0 -8 -18 3 -39 24 -30 30 -57 36 -115 28 -57 -8 -69
-5 -46 11 17 12 46 22 66 22 24 0 31 9 21 25 -8 14 14 -2 49 -35 35 -33 64
-67 64 -75z m-140 5 c0 -11 -34 -20 -75 -20 -56 1 -67 6 -45 20 39 25 120 25
120 0z m20 -136 l0 -95 -80 8 c-44 4 -80 16 -80 27 0 11 31 17 70 12 39 -4 70
-1 70 8 0 9 -31 16 -70 16 -38 0 -70 10 -70 22 0 14 27 19 70 14 56 -6 70 -1
70 27 0 25 -20 37 -75 42 l-75 8 85 4 85 3 0 -96z m-2100 -156 c0 -62 -47 -55
-56 9 -5 28 4 43 25 43 20 0 31 -18 31 -52z m2080 34 c0 -9 -27 -21 -59 -26
-32 -5 -55 -2 -50 6 5 8 -2 19 -16 25 -14 5 9 11 50 11 41 1 75 -6 75 -16z
m-2302 -240 c-35 -78 -67 -140 -71 -136 -4 4 20 68 53 142 34 73 55 145 48
158 -10 18 -8 18 10 2 19 -17 10 -55 -40 -166z m-338 146 c0 -23 -166 -389
-173 -381 -4 4 28 87 72 185 l79 178 -284 11 -284 11 295 4 c162 2 295 -1 295
-8z m-815 -23 c-160 -6 -166 -8 -195 -66 -43 -83 -56 -74 -16 11 l33 70 172
-4 171 -4 -165 -7z m1275 -184 l-46 -99 44 -506 c24 -278 49 -530 54 -560 l11
-54 -242 12 c-199 10 -241 7 -243 -16 -3 -47 -34 68 -36 136 -2 63 476 1215
496 1195 5 -5 -12 -54 -38 -108z m-1138 43 c-76 -53 -214 -132 -192 -109 24
25 216 145 230 144 6 -1 -12 -16 -38 -35z m-492 -224 c-61 -121 -115 -220
-120 -220 -6 0 39 99 100 220 61 121 115 220 120 220 6 0 -39 -99 -100 -220z
m1087 23 c-46 -101 -87 -180 -90 -176 -4 4 30 89 76 190 46 101 87 180 90 176
4 -4 -30 -89 -76 -190z m-557 -52 c0 -6 -83 -65 -185 -133 -102 -68 -175 -112
-162 -99 41 45 347 249 347 232z m697 -358 c-68 -151 -126 -271 -130 -267 -4
4 48 130 116 281 68 151 126 271 130 267 4 -4 -48 -130 -116 -281z m-1436 -14
l-79 -149 114 -12 114 -11 -125 -4 c-69 -1 -125 2 -125 7 0 23 163 334 171
326 4 -5 -27 -75 -70 -157z m759 152 c0 -5 -56 -47 -125 -93 -69 -46 -115 -73
-103 -60 41 45 228 170 228 153z m211 -309 l-32 -62 -175 4 -174 4 173 7 c171
6 173 7 198 66 13 33 28 56 33 51 5 -4 -5 -36 -23 -70z m-476 -37 c-52 -4
-138 -4 -190 0 -52 4 -9 8 95 8 105 0 147 -4 95 -8z m496 -63 l-32 -61 115
-90 c81 -64 119 -83 130 -65 12 18 15 18 16 0 0 -52 -38 -40 -146 45 -66 52
-136 90 -169 92 -48 2 -49 4 -9 11 28 6 59 36 79 77 18 38 36 65 40 61 4 -5
-6 -36 -24 -70z m-595 -37 c-41 -4 -113 -4 -160 0 -48 5 -14 8 74 8 88 0 126
-3 86 -8z m349 -20 c-47 -4 -123 -4 -170 0 -47 5 -8 8 85 8 94 0 132 -3 85 -8z"/>
</g>
</svg>
