<?xml version="1.0" standalone="no"?>
<!DOCTYPE svg PUBLIC "-//W3C//DTD SVG 20010904//EN"
 "http://www.w3.org/TR/2001/REC-SVG-20010904/DTD/svg10.dtd">
<svg version="1.0" xmlns="http://www.w3.org/2000/svg"
 width="300.000000pt" height="300.000000pt" viewBox="0 0 300.000000 300.000000"
 preserveAspectRatio="xMidYMid meet">
<metadata>
Created by potrace 1.10, written by Peter Selinger 2001-2011
</metadata>
<g transform="translate(0.000000,300.000000) scale(0.100000,-0.100000)"
fill="#ffffff" stroke="none">
<path d="M1325 2989 c-102 -12 -269 -53 -363 -90 -207 -83 -356 -181 -518
-343 -205 -205 -323 -410 -394 -683 -92 -351 -50 -725 117 -1057 131 -259 390
-518 649 -649 258 -130 538 -184 815 -158 366 34 664 174 925 435 205 205 323
410 394 683 92 351 50 725 -117 1057 -131 260 -390 518 -651 650 -268 135
-559 188 -857 155z m1175 -763 c-97 -92 -982 -836 -995 -836 -14 0 -897 742
-995 836 l-25 24 1020 0 1020 0 -25 -24z m-1737 -377 c194 -166 353 -305 355
-309 6 -15 -712 -699 -720 -687 -9 15 -11 1281 -1 1290 3 4 8 7 10 7 3 0 163
-136 356 -301z m1851 285 c8 -22 6 -1255 -2 -1275 -5 -13 -61 36 -247 213
-343 329 -476 461 -473 469 4 9 701 608 709 608 4 1 10 -6 13 -15z m-1118
-896 c6 -4 66 38 151 107 l141 114 358 -345 c198 -189 361 -349 362 -354 3 -7
-338 -10 -1003 -10 -698 0 -1006 3 -1003 10 2 6 165 166 362 355 l359 344 131
-106 c72 -59 136 -110 142 -115z"/>
</g>
</svg>
