<?xml version="1.0" standalone="no"?>
<!DOCTYPE svg PUBLIC "-//W3C//DTD SVG 20010904//EN"
 "http://www.w3.org/TR/2001/REC-SVG-20010904/DTD/svg10.dtd">
<svg version="1.0" xmlns="http://www.w3.org/2000/svg"
 width="300.000000pt" height="300.000000pt" viewBox="0 0 300.000000 300.000000"
 preserveAspectRatio="xMidYMid meet">
<metadata>
Created by potrace 1.10, written by Peter Selinger 2001-2011
</metadata>
<g transform="translate(0.000000,300.000000) scale(0.100000,-0.100000)"
fill="#ffffff" stroke="none">
<path d="M1420 2994 c-52 -10 -79 -27 -95 -60 -14 -29 -14 -37 -1 -68 8 -19
23 -39 34 -45 12 -7 82 -11 169 -11 165 0 231 -8 360 -46 197 -57 390 -171
548 -325 170 -165 281 -344 341 -544 32 -108 44 -311 25 -419 -10 -56 -9 -71
4 -96 35 -68 125 -69 160 0 46 90 41 388 -10 565 -69 237 -174 407 -374 606
-229 229 -462 358 -754 419 -89 19 -354 34 -407 24z"/>
<path d="M300 2746 c-166 -113 -225 -168 -259 -238 -180 -368 302 -1175 1133
-1897 489 -425 945 -649 1228 -602 128 21 181 63 312 246 107 149 119 197 67
276 -40 60 -361 376 -395 389 -64 24 -109 13 -217 -51 -57 -34 -126 -70 -155
-81 -49 -19 -55 -19 -105 -4 -209 61 -652 435 -915 772 -88 113 -167 241 -200
325 -27 69 -27 70 -11 122 9 29 46 102 82 162 74 125 82 171 44 235 -24 39
-253 275 -341 352 -52 45 -64 50 -115 55 -58 5 -58 4 -153 -61z"/>
<path d="M1428 2405 c-39 -38 -38 -87 1 -126 28 -28 34 -29 118 -29 108 0 196
-20 288 -65 192 -94 342 -266 390 -445 9 -32 15 -101 15 -167 l0 -111 31 -26
c35 -30 58 -32 98 -11 43 22 56 65 55 185 0 77 -6 126 -23 184 -62 220 -234
426 -451 540 -133 69 -203 88 -360 93 l-135 5 -27 -27z"/>
</g>
</svg>
